<?xml version="1.0" encoding="utf-8"?>
<!-- Created with "sPlan" (http://www.abacom-online.de) -->
<svg version="1.1" baseProfile="full"
xmlns="http://www.w3.org/2000/svg"
width="653" height="370">
<title>sPlan</title>
<defs>
<style type="text/css">
<![CDATA[
polyline {stroke-linecap:round; stroke-linejoin:round}
polygon {stroke-linecap:round; stroke-linejoin:round}
path {stroke-linecap:round; stroke-linejoin:round}
circle {stroke-linecap:round; stroke-linejoin:round}
]]>
</style>
</defs>
<path fill="rgb(255,255,128)" stroke="rgb(0,0,0)" stroke-width="2" d=" M 400 70 C 400 40 430 40 430 40 L 583 40 L 583 40 C 613 40 613 70 613 70 L 613 160 L 613 160 C 613 190 583 190 583 190 L 430 190 L 430 190 C 400 190 400 160 400 160 L 400 70 Z" />
<text x="430.00" y="163.00" font-family ="Noto Sans Mono" font-size ="11pt" font-weight="normal" font-style="normal" fill="rgb(0,0,0)" transform=" rotate(0.000) scale(1.000,1.000)">Vcc</text>
<text x="430.00" y="63.00" font-family ="Noto Sans Mono" font-size ="11pt" font-weight="normal" font-style="normal" fill="rgb(0,0,0)" transform=" rotate(0.000) scale(1.000,1.000)">SDIN</text>
<text x="430.00" y="83.00" font-family ="Noto Sans Mono" font-size ="11pt" font-weight="normal" font-style="normal" fill="rgb(0,0,0)" transform=" rotate(0.000) scale(1.000,1.000)">SCLK</text>
<text x="430.00" y="103.00" font-family ="Noto Sans Mono" font-size ="11pt" font-weight="normal" font-style="normal" fill="rgb(0,0,0)" transform=" rotate(0.000) scale(1.000,1.000)">RLCLK</text>
<text x="430.00" y="123.00" font-family ="Noto Sans Mono" font-size ="11pt" font-weight="normal" font-style="normal" fill="rgb(0,0,0)" transform=" rotate(0.000) scale(1.000,1.000)">MCLK</text>
<text x="430.00" y="143.00" font-family ="Noto Sans Mono" font-size ="11pt" font-weight="normal" font-style="normal" fill="rgb(0,0,0)" transform=" rotate(0.000) scale(1.000,1.000)">GND</text>
<circle cx="420" cy="60" r="6" fill="rgb(0,0,0)" stroke="none" stroke-width="2" />
<circle cx="420" cy="80" r="6" fill="rgb(0,0,0)" stroke="none" stroke-width="2" />
<circle cx="420" cy="100" r="6" fill="rgb(0,0,0)" stroke="none" stroke-width="2" />
<circle cx="420" cy="120" r="6" fill="rgb(0,0,0)" stroke="none" stroke-width="2" />
<circle cx="420" cy="140" r="6" fill="rgb(0,0,0)" stroke="none" stroke-width="2" />
<circle cx="420" cy="160" r="6" fill="rgb(0,0,0)" stroke="none" stroke-width="2" />
<text x="492.86" y="119.00" font-family ="Arial" font-size ="17pt" font-weight="normal" font-style="normal" fill="rgb(0,0,0)" transform=" rotate(0.000) scale(0.994,1.000)">CS4344</text>
<path fill="rgb(255,255,128)" stroke="rgb(0,0,0)" stroke-width="2" d=" M 40 70 C 40 40 70 40 70 40 L 223 40 L 223 40 C 253 40 253 70 253 70 L 253 160 L 253 160 C 253 190 223 190 223 190 L 70 190 L 70 190 C 40 190 40 160 40 160 L 40 70 Z" />
<text x="190.00" y="163.00" font-family ="Noto Sans Mono" font-size ="11pt" font-weight="normal" font-style="normal" fill="rgb(0,0,0)" transform=" rotate(0.000) scale(1.000,1.000)">+5V</text>
<text x="190.00" y="63.00" font-family ="Noto Sans Mono" font-size ="11pt" font-weight="normal" font-style="normal" fill="rgb(0,0,0)" transform=" rotate(0.000) scale(1.000,1.000)">DOUT</text>
<text x="190.00" y="83.00" font-family ="Noto Sans Mono" font-size ="11pt" font-weight="normal" font-style="normal" fill="rgb(0,0,0)" transform=" rotate(0.000) scale(1.000,1.000)">BCLK</text>
<text x="190.00" y="103.00" font-family ="Noto Sans Mono" font-size ="11pt" font-weight="normal" font-style="normal" fill="rgb(0,0,0)" transform=" rotate(0.000) scale(1.000,1.000)">RLC</text>
<text x="190.00" y="123.00" font-family ="Noto Sans Mono" font-size ="11pt" font-weight="normal" font-style="normal" fill="rgb(0,0,0)" transform=" rotate(0.000) scale(1.000,1.000)">MCK</text>
<text x="190.00" y="143.00" font-family ="Noto Sans Mono" font-size ="11pt" font-weight="normal" font-style="normal" fill="rgb(0,0,0)" transform=" rotate(0.000) scale(1.000,1.000)">GND</text>
<circle cx="230" cy="60" r="6" fill="rgb(0,0,0)" stroke="none" stroke-width="2" />
<circle cx="230" cy="80" r="6" fill="rgb(0,0,0)" stroke="none" stroke-width="2" />
<circle cx="230" cy="100" r="6" fill="rgb(0,0,0)" stroke="none" stroke-width="2" />
<circle cx="230" cy="120" r="6" fill="rgb(0,0,0)" stroke="none" stroke-width="2" />
<circle cx="230" cy="140" r="6" fill="rgb(0,0,0)" stroke="none" stroke-width="2" />
<circle cx="230" cy="160" r="6" fill="rgb(0,0,0)" stroke="none" stroke-width="2" />
<text x="90.53" y="119.00" font-family ="Arial" font-size ="17pt" font-weight="normal" font-style="normal" fill="rgb(0,0,0)" transform=" rotate(0.000) scale(0.994,1.000)">ESP32</text>
<polyline points="230.00 160.00 420.00 160.00" fill="none" stroke="rgb(0,0,0)" stroke-width="2" />
<polyline points="230.00 140.00 420.00 140.00" fill="none" stroke="rgb(0,0,0)" stroke-width="2" />
<polyline points="230.00 120.00 420.00 120.00" fill="none" stroke="rgb(0,0,0)" stroke-width="2" />
<polyline points="230.00 100.00 420.00 100.00" fill="none" stroke="rgb(0,0,0)" stroke-width="2" />
<polyline points="420.00 80.00 360.00 80.00 360.00 140.00" fill="none" stroke="rgb(0,0,0)" stroke-width="2" />
<circle cx="360" cy="140" r="6" fill="rgb(0,0,0)" stroke="none" stroke-width="2" />
<polyline points="420.00 60.00 230.00 60.00" fill="none" stroke="rgb(0,0,0)" stroke-width="2" />
<text x="50.00" y="229.00" font-family ="Tahoma" font-size ="16pt" font-weight="normal" font-style="normal" fill="rgb(0,0,0)" transform=" rotate(0.000) scale(1.000,1.000)">audio.setPinout(I2S_BCLK, I2S_LRC, I2S_DOUT, -1, I2S_MCLK);</text>
<text x="50.00" y="252.00" font-family ="Tahoma" font-size ="16pt" font-weight="normal" font-style="normal" fill="rgb(0,0,0)" transform=" rotate(0.000) scale(1.000,1.000)">BCLK must be a valid GPIO even if not used</text>
<text x="50.00" y="275.00" font-family ="Tahoma" font-size ="16pt" font-weight="normal" font-style="normal" fill="rgb(0,0,0)" transform=" rotate(0.000) scale(1.000,1.000)">MCLK can only be 0, 1 or 3 on the ESP32</text>
<text x="50.00" y="298.00" font-family ="Tahoma" font-size ="16pt" font-weight="normal" font-style="normal" fill="rgb(0,0,0)" transform=" rotate(0.000) scale(1.000,1.000)">MCLK can be freely selected on the ESP32-S3</text>
</svg>
